<svg xmlns="http://www.w3.org/2000/svg">
  <defs>
    <symbol id="nav-cover-background" viewBox="0 0 116 82">
      <rect x="9" y="13" width="38" height="13" fill="#f0f6f3" opacity=".9"/><rect x="17" y="34" width="43" height="13" fill="#f0f6f3" opacity=".62"/>
      <path d="M48 20H69M60 40h9M69 20v20" stroke="#f4be35" stroke-width="2" fill="none"/>
      <rect x="69" y="25" width="38" height="23" fill="#68d7b2"/><path d="M77 36h22" stroke="#10261e" stroke-width="3"/>
    </symbol>
    <symbol id="nav-cover-architecture" viewBox="0 0 116 82">
      <path d="M12 42h92" stroke="#789388" stroke-width="2"/><path d="m32 36 7 6-7 6m24-12 7 6-7 6m24-12 7 6-7 6" fill="none" stroke="#f0f6f3" stroke-width="2"/>
      <rect x="9" y="22" width="22" height="40" fill="#68d7b2"/><rect x="39" y="22" width="17" height="40" fill="#3158ff"/><rect x="63" y="22" width="17" height="40" fill="#f04b23"/><rect x="87" y="22" width="20" height="40" fill="#f4be35"/>
    </symbol>
    <symbol id="nav-cover-foundations" viewBox="0 0 116 82">
      <circle cx="40" cy="41" r="25" fill="#3158ff" opacity=".88"/><circle cx="71" cy="41" r="25" fill="#f04b23" opacity=".8"/>
      <path d="M55 20c10 8 15 15 15 21s-5 13-15 21c-10-8-15-15-15-21s5-13 15-21Z" fill="#f4be35"/>
      <circle cx="55" cy="41" r="5" fill="#101714"/>
    </symbol>
    <symbol id="nav-cover-faq" viewBox="0 0 116 82">
      <path d="M29 17h58v43H58L43 71V60H29Z" fill="#f0f6f3" opacity=".94"/>
      <path d="M48 31c1-8 15-10 20-4 6 8-7 10-7 17" fill="none" stroke="#3158ff" stroke-width="5" stroke-linecap="round"/>
      <circle cx="60" cy="51" r="3" fill="#f04b23"/>
    </symbol>
    <symbol id="nav-cover-endem-spec" viewBox="0 0 116 82">
      <path d="M19 57 43 24l28 14 25-18M43 24l4 35m24-21 8 25M47 59l32 4" stroke="#789388" stroke-width="2" fill="none"/>
      <circle cx="19" cy="57" r="7" fill="#68d7b2"/><circle cx="43" cy="24" r="8" fill="#3158ff"/><circle cx="71" cy="38" r="7" fill="#f4be35"/><circle cx="96" cy="20" r="6" fill="#f04b23"/><circle cx="47" cy="59" r="5" fill="#f0f6f3"/><circle cx="79" cy="63" r="6" fill="#68d7b2"/>
    </symbol>
    <symbol id="nav-cover-closure" viewBox="0 0 116 82">
      <rect x="13" y="11" width="90" height="60" fill="#161e1a" stroke="#789388"/>
      <path d="M13 26h90M13 41h90M13 56h90M36 11v60" stroke="#789388"/>
      <rect x="42" y="17" width="34" height="4" fill="#68d7b2"/><rect x="42" y="32" width="48" height="4" fill="#3158ff"/><rect x="42" y="47" width="27" height="4" fill="#f4be35"/><rect x="42" y="62" width="42" height="4" fill="#f04b23"/>
    </symbol>
    <symbol id="nav-cover-evidence" viewBox="0 0 116 82">
      <rect x="10" y="15" width="43" height="50" fill="#3158ff" opacity=".75"/><rect x="37" y="23" width="43" height="42" fill="#68d7b2" opacity=".82"/><rect x="64" y="31" width="42" height="34" fill="#f4be35" opacity=".9"/>
      <path d="M21 53h21M49 53h20M76 53h19" stroke="#101714" stroke-width="3"/>
    </symbol>
    <symbol id="nav-cover-session" viewBox="0 0 116 82">
      <rect x="15" y="13" width="86" height="56" rx="2" fill="#161e1a" stroke="#789388"/>
      <path d="M15 29h86M39 29v40" stroke="#789388"/>
      <circle cx="27" cy="21" r="4" fill="#68d7b2"/>
      <path d="M48 39h31M48 49h25M48 59h29" stroke="#f0f6f3" stroke-width="3"/>
      <path d="m88 35 9 6v12l-9 6-9-6V41Z" fill="#3158ff"/>
      <path d="m84 47 3 3 6-7" fill="none" stroke="#f4be35" stroke-width="2"/>
    </symbol>
    <symbol id="nav-cover-endem" viewBox="0 0 116 82">
      <path d="M17 18h82v48H17Z" fill="#161e1a" stroke="#789388"/><path d="M17 34h82M17 50h82M42 18v48" stroke="#789388"/>
      <path d="m24 26 4 4 8-9m-12 21 4 4 8-9m-12 21 4 4 8-9" fill="none" stroke="#68d7b2" stroke-width="3"/>
      <rect x="50" y="24" width="38" height="4" fill="#f0f6f3" opacity=".7"/><rect x="50" y="40" width="28" height="4" fill="#f4be35"/><rect x="50" y="56" width="42" height="4" fill="#3158ff"/>
    </symbol>
    <symbol id="nav-cover-inspector" viewBox="0 0 116 82">
      <rect x="14" y="15" width="53" height="48" fill="#161e1a" stroke="#789388"/><path d="M21 25h37M21 35h28M21 45h34M21 55h23" stroke="#68d7b2" stroke-width="3"/>
      <circle cx="76" cy="42" r="18" fill="none" stroke="#f4be35" stroke-width="5"/><path d="m89 55 14 14" stroke="#f04b23" stroke-width="6" stroke-linecap="round"/>
    </symbol>
    <symbol id="nav-cover-format" viewBox="0 0 116 82">
      <rect x="10" y="18" width="31" height="46" fill="#f0f6f3"/><path d="M16 29h19M16 38h14M16 47h19M16 56h11" stroke="#3158ff" stroke-width="3"/>
      <path d="M47 41h21m-7-7 7 7-7 7" stroke="#f4be35" stroke-width="3" fill="none"/>
      <rect x="74" y="18" width="32" height="46" fill="#f04b23"/><path d="M80 30h20M80 40h20M80 50h20" stroke="#101714" stroke-width="3"/>
    </symbol>
    <symbol id="nav-cover-runner" viewBox="0 0 116 82">
      <circle cx="22" cy="24" r="9" fill="#3158ff"/><circle cx="22" cy="58" r="9" fill="#68d7b2"/><circle cx="58" cy="41" r="11" fill="#f4be35"/><circle cx="95" cy="24" r="9" fill="#f04b23"/><circle cx="95" cy="58" r="9" fill="#3158ff"/>
      <path d="M30 27 48 36M30 55l18-9m21-5 18-13m-18 13 18 13" stroke="#f0f6f3" stroke-width="3"/>
    </symbol>
    <symbol id="nav-cover-getting-started" viewBox="0 0 116 82">
      <path d="M16 58c13 0 12-34 27-34s12 34 28 34 11-34 29-34" fill="none" stroke="#789388" stroke-width="3" stroke-dasharray="4 4"/>
      <circle cx="16" cy="58" r="8" fill="#68d7b2"/><circle cx="43" cy="24" r="8" fill="#3158ff"/><circle cx="71" cy="58" r="8" fill="#f4be35"/><path d="m94 18 11 6-11 6Z" fill="#f04b23"/>
    </symbol>
    <symbol id="nav-cover-architecture-guide" viewBox="0 0 116 82">
      <rect x="11" y="14" width="30" height="54" fill="#68d7b2"/><rect x="75" y="14" width="30" height="54" fill="#3158ff"/>
      <path d="M50 10v62M58 10v62" stroke="#f04b23" stroke-width="3" stroke-dasharray="5 4"/><path d="m64 41 7-7m-7 7 7 7" stroke="#f4be35" stroke-width="3"/>
    </symbol>
    <symbol id="nav-cover-application-reference" viewBox="0 0 116 82">
      <g fill="#161e1a" stroke="#789388"><rect x="11" y="13" width="27" height="24"/><rect x="45" y="13" width="27" height="24"/><rect x="79" y="13" width="27" height="24"/><rect x="11" y="45" width="27" height="24"/><rect x="45" y="45" width="27" height="24"/><rect x="79" y="45" width="27" height="24"/></g>
      <circle cx="24" cy="25" r="5" fill="#68d7b2"/><path d="M53 20h11v10H53Z" fill="#3158ff"/><path d="m88 30 5-10 5 10Z" fill="#f04b23"/><path d="M18 57h13M24 51v13" stroke="#f4be35" stroke-width="3"/><path d="m54 57 4 4 8-10" stroke="#68d7b2" stroke-width="3" fill="none"/><circle cx="92" cy="57" r="7" fill="none" stroke="#3158ff" stroke-width="3"/>
    </symbol>
    <symbol id="nav-cover-spec-reference" viewBox="0 0 116 82">
      <rect x="18" y="9" width="64" height="64" fill="#f0f6f3"/><rect x="26" y="18" width="7" height="46" fill="#f04b23"/><path d="M41 22h30M41 32h24M41 42h30M41 52h19M41 62h27" stroke="#3158ff" stroke-width="3"/>
      <rect x="76" y="17" width="24" height="42" fill="#68d7b2"/><path d="M82 26h12M82 35h12M82 44h8" stroke="#10261e" stroke-width="2"/>
    </symbol>
    <symbol id="nav-cover-endem-manual" viewBox="0 0 116 82">
      <rect x="9" y="14" width="31" height="54" fill="#3158ff"/><rect x="76" y="14" width="31" height="54" fill="#f04b23"/>
      <path d="M17 28h15M17 39h15M17 50h15M84 28h15M84 39h15M84 50h15" stroke="#f0f6f3" stroke-width="3"/>
      <path d="M40 28h17v27h19M53 22l7 6-7 6m16 15 7 6-7 6" stroke="#f4be35" stroke-width="3" fill="none"/>
    </symbol>
    <symbol id="nav-cover-current-stage" viewBox="0 0 116 82">
      <path d="M13 57h90" stroke="#789388" stroke-width="2"/><circle cx="23" cy="57" r="7" fill="#68d7b2"/><circle cx="48" cy="57" r="10" fill="#f04b23"/><circle cx="75" cy="57" r="7" fill="#3158ff" opacity=".45"/><circle cx="99" cy="57" r="7" fill="#f4be35" opacity=".35"/>
      <path d="M48 13v30" stroke="#f04b23" stroke-width="3"/><path d="m39 22 9-9 9 9" fill="none" stroke="#f04b23" stroke-width="3"/><rect x="31" y="26" width="34" height="15" fill="#f0f6f3"/><path d="M37 33h22" stroke="#10261e" stroke-width="3"/>
    </symbol>
    <symbol id="nav-cover-roadmap" viewBox="0 0 116 82">
      <path d="M12 66h92" stroke="#789388" stroke-width="2"/><rect x="16" y="52" width="19" height="14" fill="#68d7b2"/><rect x="40" y="40" width="19" height="26" fill="#3158ff"/><rect x="64" y="28" width="19" height="38" fill="#f4be35"/><rect x="88" y="16" width="16" height="50" fill="#f04b23"/>
      <path d="m92 11 12 5-12 5Z" fill="#f0f6f3"/>
    </symbol>
    <symbol id="nav-cover-testing" viewBox="0 0 116 82">
      <g fill="#161e1a" stroke="#789388"><rect x="11" y="12" width="27" height="27"/><rect x="44" y="12" width="27" height="27"/><rect x="77" y="12" width="27" height="27"/><rect x="11" y="45" width="27" height="27"/><rect x="44" y="45" width="27" height="27"/><rect x="77" y="45" width="27" height="27"/></g>
      <path d="m18 25 5 5 9-12m19 7 5 5 9-12m-47 40 5 5 9-12m26 0 9 12m0-12-9 12" stroke="#68d7b2" stroke-width="3" fill="none"/><path d="m84 19 13 13m0-13L84 32" stroke="#f04b23" stroke-width="3"/><circle cx="90" cy="58" r="8" fill="#f4be35"/>
    </symbol>
    <symbol id="nav-cover-downloads" viewBox="0 0 116 82">
      <path d="M21 23 58 9l37 14-37 15Z" fill="#68d7b2"/><path d="m21 23 37 15v35L21 57Z" fill="#3158ff"/><path d="m95 23-37 15v35l37-16Z" fill="#f04b23"/>
      <path d="M58 18v33m-9-9 9 9 9-9" stroke="#f0f6f3" stroke-width="4" fill="none"/><circle cx="87" cy="61" r="8" fill="#f4be35"/>
    </symbol>
  </defs>
</svg>
